<?xml version="1.0" encoding="UTF-8"?><svg xmlns="http://www.w3.org/2000/svg" xmlns:xlink="http://www.w3.org/1999/xlink" viewBox="0 0 130.8 172.08"><defs><style>.g{fill:url(#d);stroke:url(#e);}.g,.h,.i{stroke-miterlimit:10;stroke-width:1.05px;}.h{fill:url(#f);stroke:#c1272d;}.i{fill:#998675;stroke:#998675;}</style><linearGradient id="d" x1=".53" y1="86.21" x2="130.27" y2="86.21" gradientTransform="matrix(1, 0, 0, 1, 0, 0)" gradientUnits="userSpaceOnUse"><stop offset=".08" stop-color="#c7b299"/><stop offset=".16" stop-color="#cab69e"/><stop offset=".31" stop-color="#cdbaa3"/><stop offset=".42" stop-color="#d1c0ac"/><stop offset=".55" stop-color="#d4c4b1"/><stop offset=".66" stop-color="#cfbda7"/><stop offset=".79" stop-color="#cdbaa3"/><stop offset=".91" stop-color="#c7b299"/></linearGradient><linearGradient id="e" x1="0" x2="130.8" xlink:href="#d"/><radialGradient id="f" cx="65.18" cy="11.25" fx="65.18" fy="11.25" r="7.18" gradientTransform="matrix(1, 0, 0, 1, 0, 0)" gradientUnits="userSpaceOnUse"><stop offset=".13" stop-color="#c1272d"/><stop offset=".23" stop-color="#c5363b"/><stop offset=".43" stop-color="#cc4e52"/><stop offset=".54" stop-color="#cf575b"/><stop offset=".85" stop-color="#c33035"/><stop offset=".91" stop-color="#c1272d"/></radialGradient></defs><g id="a"/><g id="b"><g id="c"><g><path class="g" d="M37.63,.88h55.55c20.48,0,37.1,16.62,37.1,37.1v118.83c0,8.13-6.6,14.74-14.74,14.74H15.26c-8.13,0-14.74-6.6-14.74-14.74V37.98C.53,17.5,17.15,.88,37.63,.88Z"/><path class="i" d="M39.63,.88c-8.63,7.25-12.11,13.35-12.98,16.83-4.62-.2-18.6,3.05-22.33,3.91C4.08,13.96,21.36-2.04,39.63,.88Z"/><path class="i" d="M126.35,21.37c-2.9-1.98-18.03-3.87-22.64-3.66-.87-3.48-4.35-9.58-12.98-16.83,18.11-.96,29.78,7.66,35.63,20.49Z"/><circle class="h" cx="65.18" cy="11.25" r="7.18"/><rect class="i" x=".53" y="149.53" width="129.74" height="22.02" rx="10.45" ry="10.45"/></g></g></g></svg>